<?xml version="1.0" encoding="UTF-8"?>
<svg width="800px" height="800px" viewBox="0 0 800 800" version="1.1" xmlns="http://www.w3.org/2000/svg">
    <g stroke="none" stroke-width="1" fill="none" fill-rule="evenodd">
        <path d="M0,0 C200,100 400,0 600,100 C800,200 1000,100 1200,200 L1200,800 L0,800 L0,0 Z" fill="#FFFFFF" fill-opacity="0.1"/>
        <path d="M0,200 C200,300 400,200 600,300 C800,400 1000,300 1200,400 L1200,800 L0,800 L0,200 Z" fill="#FFFFFF" fill-opacity="0.1"/>
        <path d="M0,400 C200,500 400,400 600,500 C800,600 1000,500 1200,600 L1200,800 L0,800 L0,400 Z" fill="#FFFFFF" fill-opacity="0.1"/>
    </g>
</svg> 